<?xml version="1.0" standalone="no"?>
<!DOCTYPE svg PUBLIC "-//W3C//DTD SVG 20010904//EN"
 "http://www.w3.org/TR/2001/REC-SVG-20010904/DTD/svg10.dtd">
<svg version="1.0" xmlns="http://www.w3.org/2000/svg"
 width="1035.000000pt" height="342.000000pt" viewBox="0 0 1035.000000 342.000000"
 preserveAspectRatio="xMidYMid meet">

<g transform="translate(0.000000,342.000000) scale(0.100000,-0.100000)"
fill="#000000" stroke="none">
<path d="M1215 3399 c-43 -12 -109 -71 -131 -116 -17 -35 -19 -73 -24 -445
l-5 -407 -23 -23 -23 -23 -433 -5 -433 -5 -49 -30 c-27 -17 -59 -46 -71 -64
l-23 -34 0 -529 0 -529 48 -47 c28 -29 63 -52 88 -60 30 -9 156 -12 443 -12
425 0 445 -2 467 -47 5 -10 11 -205 14 -433 5 -406 5 -416 27 -457 26 -48 76
-89 130 -109 51 -18 932 -20 984 -2 53 18 116 67 136 107 16 32 18 78 23 458
l5 423 28 27 27 28 428 5 c322 4 434 8 457 18 51 23 94 61 118 105 22 42 22
44 22 522 0 526 0 526 -59 587 -72 74 -62 72 -536 78 -234 3 -432 8 -440 13
-43 22 -45 33 -50 457 -5 370 -7 408 -24 443 -23 46 -79 94 -126 107 -44 12
-953 12 -995 -1z m463 -745 c28 -19 47 -56 60 -119 6 -27 46 -205 87 -395 42
-190 89 -403 105 -475 48 -222 79 -348 93 -390 l14 -40 77 235 c42 129 82 242
89 251 28 37 50 39 377 39 370 0 379 -2 380 -76 0 -19 -8 -38 -21 -50 -19 -18
-44 -19 -323 -24 l-301 -5 -117 -348 c-64 -192 -124 -357 -134 -368 -25 -27
-85 -26 -111 3 -24 27 -24 26 -108 428 -64 304 -190 901 -200 948 -3 13 -10
20 -15 17 -8 -5 -127 -363 -322 -965 -35 -110 -57 -162 -74 -178 -27 -23 -72
-29 -104 -12 -11 6 -89 116 -175 245 l-156 235 -293 0 c-282 0 -294 1 -320 21
-33 26 -36 79 -6 109 20 20 30 21 362 18 l340 -3 32 -37 c17 -20 76 -111 131
-202 54 -91 102 -163 106 -158 4 4 39 108 79 232 39 124 107 335 150 470 43
135 101 318 129 407 41 128 57 166 78 182 31 25 61 27 91 5z"/>
<path d="M5213 2405 c-134 -29 -239 -110 -294 -229 -47 -101 -50 -143 -47
-584 3 -394 4 -409 26 -462 48 -119 149 -213 270 -250 124 -38 306 -24 417 32
64 33 149 122 183 191 47 96 52 148 52 531 0 383 -7 443 -57 546 -89 182 -317
275 -550 225z m199 -225 c51 -15 97 -56 122 -110 20 -42 21 -64 24 -388 2
-202 -1 -370 -7 -409 -18 -119 -84 -178 -201 -178 -90 0 -151 31 -188 93 l-27
47 -3 387 c-2 253 1 401 8 427 29 108 148 165 272 131z"/>
<path d="M3870 1640 l0 -760 135 0 135 0 2 359 3 360 151 -267 c84 -147 175
-309 203 -359 l52 -93 156 0 c132 0 154 2 150 15 -4 8 -33 56 -65 107 -32 51
-138 225 -235 386 l-177 292 97 158 c53 86 115 189 138 227 23 39 79 130 123
203 l82 132 -143 0 -142 0 -195 -332 -195 -332 -3 332 -2 332 -135 0 -135 0 0
-760z"/>
<path d="M6002 1783 l3 -618 31 -65 c78 -164 210 -240 419 -240 205 0 335 72
414 228 49 99 51 122 51 737 l0 575 -130 0 -129 0 -3 -587 c-3 -572 -4 -589
-23 -623 -63 -106 -217 -130 -311 -48 -73 64 -69 28 -72 676 l-3 582 -125 0
-125 0 3 -617z"/>
<path d="M7120 1647 c0 -415 2 -756 4 -758 2 -2 54 -3 115 -1 l112 3 -3 495
c-2 272 -1 494 2 494 3 0 63 -204 134 -453 72 -248 136 -472 143 -497 l13 -45
70 0 70 0 16 55 c78 265 183 627 226 778 l53 183 3 -505 2 -506 115 0 115 0 0
755 0 755 -149 0 c-134 0 -150 -2 -155 -17 -3 -10 -52 -173 -109 -363 -58
-190 -119 -394 -137 -455 -39 -136 -41 -142 -46 -130 -2 6 -24 78 -48 160 -24
83 -73 247 -109 365 -36 118 -80 266 -98 328 l-32 112 -154 0 -153 0 0 -753z"/>
<path d="M8520 2328 c0 -40 -1 -380 -3 -756 l-2 -682 378 0 377 0 0 115 0 115
-250 0 -250 0 0 213 0 212 220 0 220 0 0 113 0 112 -220 0 -220 0 0 200 0 200
240 0 240 0 0 115 0 115 -365 0 -365 0 0 -72z"/>
<path d="M9440 1646 l0 -756 248 0 c187 0 262 4 305 15 173 45 287 159 332
332 12 46 15 131 15 419 0 327 -2 368 -19 423 -35 113 -111 205 -208 255 -106
53 -141 58 -415 63 l-258 5 0 -756z m491 509 c57 -20 102 -65 131 -129 23 -50
23 -57 23 -386 l0 -335 -26 -56 c-45 -95 -118 -129 -276 -129 l-93 0 0 525 0
525 99 0 c63 0 114 -6 142 -15z"/>
</g>
</svg>
